<svg xmlns="http://www.w3.org/2000/svg" viewBox="0 0 219.4 326.09"><defs><style>.cls-1{fill:#fff;}</style></defs><title>info</title><g id="Layer_2" data-name="Layer 2"><g id="Layer_1-2" data-name="Layer 1"><path class="cls-1" d="M109.43,245c-7.5,0-15-.08-22.5,0-3.19.06-4.42-1.14-4.42-4.39q0-36.73-.15-73.49c0-3.27,1.24-4.34,4.46-4.29,8.66.16,17.33.1,26,0,22.93-.23,38.43-12.23,47.55-32.18,10.87-23.77,3.19-50-17.9-65.86-19.42-14.56-49.1-14-68,1.54-11.38,9.38-18.38,21.46-19.73,36.32-.44,4.8-2.17,6.5-7.1,6.4-13.82-.3-27.66-.23-41.48,0-4.7.07-6.43-1.33-6.13-6.32,1.56-25.23,10.53-47.48,27.48-66C58.85,2.43,106-9.26,149,7.69c42.61,16.78,66.43,48.83,70.06,94.72,3.93,49.66-28.93,96.05-76.94,110.33-3.74,1.11-5.13,2.95-5,6.67.18,6.82,0,13.66.21,20.48.12,3.66-1.2,5.08-4.89,5-7.66-.16-15.33,0-23,0Z"/><path class="cls-1" d="M109.38,326c-7.5,0-15-.13-22.48.06-3.07.07-4.18-1-4.18-4q0-23-.24-45.94c0-3.19,1.26-4.41,4.47-4.39,15.33.11,30.65.16,46,0,3.39,0,4.33,1.26,4.33,4.34q0,22.47.22,45c0,3.71-1.55,5-5.12,4.89-7.65-.16-15.31-.05-23-.05Z"/><path class="cls-1" d="M90.68,109.19a7.64,7.64,0,0,1-7.11,8.06c-5.07.27-8.92-3.06-9-7.81a8.1,8.1,0,0,1,7.74-8.1A7.9,7.9,0,0,1,90.68,109.19Z"/><path class="cls-1" d="M136.53,117.15a8,8,0,1,1-.25-16,8.11,8.11,0,0,1,8,7.87A8.25,8.25,0,0,1,136.53,117.15Z"/><path class="cls-1" d="M136.82,88.91l15,10-2.78,4.61c-4.74-3.13-9.38-5.93-13.63-9.23-.9-.7-.41-3.21-.56-4.89Z"/><path class="cls-1" d="M82.33,88.8l3.15,4.36c-5.17,3.53-10.11,6.92-15.29,10.47L67,99.29Z"/></g></g></svg>