<svg xmlns="http://www.w3.org/2000/svg" viewBox="0 0 313.22 400.06"><defs><style>.cls-1{fill:#fff;}</style></defs><title>Asset 4</title><g id="Layer_2" data-name="Layer 2"><g id="Layer_1-2" data-name="Layer 1"><path class="cls-1" d="M44,134.77c73.56,47.86,69.09,46.63-38.26-10,103.83,47.46,105.88,42.14,18.22-41.25,93.14,81.28,92.79,81.22-1.73-2.06C114.3,163,113.55,160.9,15.25,60.63c99.51,96.67,99.32,96.44-3.16-4.1,99.61,100.69,98,99.19-12.09-10.75C109.58,152.09,110.66,150,8.24,31.33c105.46,118,105.44,117.55,2.35-6.08C111.93,146,112.34,143.49,13.13,6c102,134.63,104.28,134.29,17.77-2.68,90,139,90.89,141.06,7.46,18.4,82.55,126.94,80.89,128.34-14.23,11.44,91.9,117,91.41,117.2-2.91,4.29,95.68,115.14,95.5,116.38.57,12.63,95.05,105,95.38,105,3.81-.85,95.86,104.61,98.49,108.29,20.89,17.83,77.08,94.55,77.17,95.19,5.36,5.65,75.17,89,76.53,90.22,10,8.83,66.4,85.19,65.65,86.34-9,11.27,71.44,75.22,71.49,75.51-2.26,4.52,76.13,75,75.63,78.08-.62,31,76.35,50.2,77.87,50.08,14.35,3.34,65,48.17,65.27,48,2.68-.31,63.07,47.9,63.21,47.62.89-2.7,62.08,49.67,61.88,49.37-1.46-3.22,62.73,50.87,63.18,49.23,3.43-12.87,62,60.41,63.4,60.41,12.73-.08,53,62.1,53.64,63.85,3.37,12.68,48.73,53.83,49.5,54.43,2.48,9.3,49.19,47.37,50.59,48.81,13.92,14.63,38.68,36.37,39.19,36.47,6.91.91,35.3,33.79,37.52,32.72,21.88-11.38,18.29,42.78,18.6,42.54,2.56-3.34,16.05,45.15,16,44.92.11-2,17.15,44,17,41.29.09-27.73,15.46,65,16,63.7,2.6-12.12,14.59,73.8,14.64,73.08.1-8.81,11.76,76.64,14.07,72.54,12-33.25,7.54,103.32,9.51,103.57,19.1,2.19-5.23,104.57-4.08,107.08,10.2,25.59-15,84.87-15.06,85-.52,1.43C161.9,166,161.94,167.47,177.4,97c-13.64,74-14.1,76-1.57,18.55-13.85,59.92-13.89,60.48-.15,7-12.8,55.4-12.39,56.62,3.13,12.16-15.56,46.3-15.38,46.66,2.46,3.93-15,44.08-12.68,45,22.39,11.42-32.21,35.5-31.75,35.35,6-.85-35.55,33.82-33.89,32.06,16.75-17.53-48.31,47.25-48.62,46.75.22-5.86-50,49.9-48.91,47.73,7.37-15.43-52.12,62.44-50.45,63.89,12.51,10.87-63.06,55.85-63.17,56.5-1.64,6.33-62.11,51.13-62,51.43.52,3.17-62,48.79-61.73,48.71,2.67-.08-63.14,47.86-62.06,47.57,11-2.63-71.06,50.57-71.09,50.17,1.64-2.65-74.43,49-74.48,45.74,2.89-32.6-76.7,75.09-78.18,75-13-6.33-66.34,78.44-66.37,77.45.85-10.49-65.76,85.92-64.7,85.6,9.82-3.68-72.24,89.78-72,89.55,3.89-3.82-76.57,89.27-74.3,85.2,21.07-19.72-90,106.27-89.69,106.1,3.23-3-93.38,107.19-93.24,106.26,1.66-9.21-93.91,114-93.77,113.58-1.74-3.68-96.17,117-97.78,115.55-16.41-14.43C191.18,143.21,192.83,141,286.51,0c-89.62,139.84-86.73,141.86,16.71,11.63-102.29,133.55-102.52,134.76-3.55,18-99.06,119.65-97.76,119.8,10.85,5.15-107.37,116.82-106.88,117.79,2.7,10.52C203,156.07,201.42,157.09,296.28,56c-96.8,105.08-97.23,106.56-8.06,26.69-89.17,83.45-86.88,85.41,21.14,21.27-106.5,69.5-106.92,71.61-2.48,20.74-107.18,56.66-110.81,57.58-39.05,10.13-77.83,47.08-77.56,48.43-1.72,13.08-78,38.09-79.62,38.54-15.72,3.5-66.55,33.68-67,33.79-6.08,1.06-63.1,35.07-64.58,36.93-16.38,17.2-50.54,21.75-50.42,22.16-.49,4.87-48.62,20-47.38,22.11,10.07,22-54.67,9-55,15.34-2.45,64.53-55.53-41.48-56.13-40.13-6.66,13-51-51.07-50.76-50.33.57,7.69-49.7-56.26-48.56-55.26,10.79,10.69-57.73-64.29-57-64.54,6.24,1.17-59.07-65.53-56.82-63.43,23.29,18-77.94-75.31-78.38-72.24-5.69,28.35-77.4-95.75-80.35-95.3-28.52,5.83-58-103.36-59.92-106.64-15.84-25.91-43.86-85-43.32-86-.24-8.84-44.75-79.1-45.94-80.13-11.16-11-36.31-70.57-36.69-70.2-3.65.59-35.48-69.21-37.75-68.13-22.81,10.81-17.94-78-18.09-77.62-2.44,3.81-15.63-80.25-15.57-79.53-.74,6-16.38-83-16-81.07-.06,20.28-14.42-97.73-14.79-96-1.83,15.62-14.29-109.34-14.3-108.66-.21,8.3-11.39-111.29-14.15-106-17.87,34.64-6.52-139.94-9.9-145.37-21.34-34.64,14.24-116.88,14.32-117.46-.07-7.77,12.69-112.75,12.71-115,.08-22.3,14.26-95.69,14.43-96.28.25-7.36,13-90.85,12.61-92.1-3.32-12.09,16-82.21,15.6-82.51-3.85-4.87,16.53-78.58,14.46-79.53-20.56-9.72,32.33-71.58,31.75-71.52-6.65.64,36.94-70.64,36.11-69.75-8.61,8.56,43.12-76.9,43.42-76.22-1.06,6.58,44.89-79.07,44.19-76.33-9.75,25.7,48.84-98.27,46-98.07-27.77,2.29,66.54-103.84,65.41-110.65-7-41.85C126.05,229,128,227.78,69.35,294c61.76-65.87,62.19-66.07,4.49-1.82,58.33-65,58.6-65.26,2.8-2.93,57.09-63.47,58.24-64.29,8.73-9.71,50.54-57.22,49-58.08-4.91-11.49,49.29-56.8,49.34-65.69,2.84-89.44,52.54,13,52.53,13.07-1.81-11.88,51.24,21.87,49.84,20.36-14.35-14.92,62.39,33.39,62,33.16-4.36-.81,64.39,35.33,62.88,35.42-14.59,0,74.65,33.31,74.41,31.8-4.51-14.17C122.92,181,122.94,180.81,44,134.77Zm104.72,1.65q8.22,29,0-.16c6,20.5,6.34,21.6,4.9,10.41,2.44,12.76,2.4,13,0,5,1.21,10.21-.36,11.78-1.56,17,4.49-2,3.57-.57-.71,13.4,3.47-12.27,3-12-1.79,4,5.48-15.37,5.83-16.12,5.24-1.2,1.2-14.42,1.18-14.17-.34,2.43.56-11.5-.32-6.64-9.25,48.79,7.71-49.3,7.87-48.67,4.69,6,6.13-54.9,7.6-54.86,14.68-.18-4.81-54.65-4.38-54.84,3.52-3.79-8.64-54.77-9.13-57.56-5.23-27.88-4.89-35-5.38-37.46-4.79-24.94-.36-15.32-.05-14.47,5.29.48-4.94-16.05-5.37-16.73-3.23-6.7-3.21-11.69-3.08-12.41.18-9.67-2.11-4.71-1-5.63,2.87-10.53-5.1,2.79-5.52,2-4.48-7.86-1.68,8.79-2.13,8.53-.74-2.93-.09,10.41-.21,9.18,5-9.22-4.19,17.26-4,16.82.71-4.21-5.46,19.73-5.81,18.81-4.72-8.23-2.23,25.67-2.15,25.34,0-5.52-.61,28.64.46,27,1.87-17.11-3.9,41.12-4,40-.22-11.22-2.42,49.54-2.27,48.79,2.89-6.42-6.3,56-7.69,55.34-14.47-.37,5.72,55.91,5.91,56.86,3.91,9.07,3.15,49.26,3,49.66.05,6.8,2,44.69,1,45.69-3.88,10.86,5.47,37,6,37.83,4.6,8.28,2.48,30.88,2.41,31.28.21,5.3C155.09,153.66,154.49,154.64,148.67,136.42Zm-24.44,85.26c22.49,18.82,22.79,19.06,1.15,4.11,23.36,17.6,24.9,20,15.41,23.75,11.22-1.1,11.65-.76.64,3.51,9.7-3.12,10.25-2.56.71,6.34,11.31-7,12.78-5.91,12.72,13,1.44-17.07,1.66-17.09,2.81.08.51-18.88,1.87-20.23,13.51-13.66-9.93-8.3-9.46-8.83,1.3-4.33-12.09-5.68-11.48-6.17.42-6.37-9.9-3-8.31-5.49,16-25.42-25.42,18.72-28,20.11-25.15,15.56-7,8.15-7.72,8.07-15.27-.4C152,242.72,149.38,241.43,124.23,221.68Zm83.29-35.39c-14.55-3.48-17.52-6.84-20-22.34-3.54,15.5-7,18.2-21.49,22.9,14.62,2.76,17.44,5.78,20.22,21.31C190.05,192.68,193,189.67,207.52,186.29Zm-102.19-.7c14.37,4,17,7,19.7,22.58,4.18-15.28,7.09-18.11,21.73-21.18-14.42-4.6-17.46-7-19.82-22.75C123.64,179.3,119.62,182.34,105.33,185.59ZM238.8,156.77c2.4-10.1,4.3-12.1,13.83-14.51-9.47-2.38-11.11-4.15-13.18-14.27-2.64,10.06-4.4,11.86-13.91,14.2C235,144.44,237.06,146.68,238.8,156.77Zm-152.06-14c-9.31-2.45-10.93-4.25-13-14.45-2.5,10-4.22,11.77-13.64,13.77,9.28,2.68,11.28,5,13.24,15.09C75.41,147,77.35,144.93,86.74,142.73Zm62.79,150.33c5.67,5,5.28,6.93,6.59,11.2,1.67-3.87,1.59-5.68,6.5-8.46-4.15,1.64-3.89,1.41.26-3.16C157.18,298,155.85,298.07,149.53,293.06Zm.47,8.4c4.55,4.27,4.5,4.4-.49,1.33,5.12,3.56,5.33,3.9,1.79,3.54,3.86,1.14,4,1.58,1.53,4.23,3.08-1.23,3.87-1,6,1.39-1-4.11-.65-5.15,4.76-9.76-5,3.52-5.08,3.41-.71-1.08C157.21,306.82,155.93,307,150,301.46Zm-.92-17.33c6,5.07,5.86,7,7.09,11.25,1.57-3.84,1.5-5.79,7.07-8.68-4.62,1.87-4.5,1.63-.25-2.88C157.14,289.41,155.76,289.69,149.08,284.13Zm.39,35.57c5.66,4.88,5.5,6.73,6.64,10.71,1.6-3.57,1.53-5.43,6.74-8.25-4.33,1.85-4.14,1.62,0-2.57C157.14,324.57,155.8,324.65,149.47,319.7Zm0-8.85c5.24,4.66,5.67,5.3,3.38,7.69a9.58,9.58,0,0,1,6.77.72c-1.68-2.87-1.38-3.72,3.94-8C157.1,315.92,155.78,315.7,149.44,310.85Zm-73-186.34c3.4.26,4,.94,6.88,2.38-1.82-2-1.81-3.11,0-5C80.35,123.13,79.79,124.05,76.41,124.51Zm160-.37c-3.61-.26-4.29-1-6.85-2.93,1.36,2.44,1.63,3.38-1.36,6.49C232,125,232.73,124.66,236.45,124.14Z"/><path class="cls-1" d="M149,146.2c5.34-.56,5.92-.86,5.6-3.4,1.8,1.49,2.32,2.36,7.07,1.87-3.83,1-3.65,1.33.22,2.36-4.92-.44-5.48.34-7.19,2.23.21-2.67-.35-3-5.7-3.22Q156.19,145.88,149,146.2Z"/><path class="cls-1" d="M162.21,163.24c-4.45.06-5.14.57-6,3.52-.49-3-1.51-3.38-5.51-4.06,4.06-.87,4.87-1.47,5.42-4.48C157.22,161.2,157.83,161.79,162.21,163.24Z"/><path class="cls-1" d="M162.21,129.49c-4.37.76-5.07,1.11-5.63,4.11-.81-2.82-1.76-3.28-5.82-3.63,4-1.06,5-1.66,5.08-4.68C157,128.07,157.54,129,162.21,129.49Z"/><path class="cls-1" d="M198.27,186.7c-8.06,1.32-9.58,2.89-11.11,11.42-2.19-8.47-3.78-10-11.89-11.25,8-2.84,9.52-4.53,11.63-13C188.79,182.4,190.19,184,198.27,186.7ZM180,180.87c4.72,5.4,5.37,6.28,4.23,10.44,2-2.78,2.56-2.67,4.23.2-.54-4.32,0-5.33,4.88-10.88C187.35,186.26,186.09,186.81,180,180.87Z"/><path class="cls-1" d="M114.6,185.94c8.11-2,9.72-3.61,11.64-12,2,8.6,3.38,10.26,11.31,13.47-8.13.9-9.7,2.33-11.77,10.77C123.88,189.58,122.58,188.16,114.6,185.94Zm4.76-6c4.41,4.77,4.32,4.94-.93,1.72,5.65,4.35,6.08,5.34,5,9.55,2-2.84,2.5-2.47,4.61.8-.76-4.79-.33-5.9,5.12-11.32C126.55,186.51,125.2,186.59,119.36,179.9Z"/></g></g></svg>